# xmcd
#
# Track frame offsets:
#	150
#	15397
#	34747
#
# Disc length: 664 seconds
#
# Revision: 0
# Processed by: cddbd v1.5.2PL0 Copyright (c) Steve Scherf et al.
# Submitted via: audiograbber 1.83.01
#
DISCID=16029603
DTITLE=Tuula Amberla - Alla Otavan [CDS)
DYEAR=1992
DGENRE=Pop
TTITLE0=Alla Otavan
TTITLE1=Kuun Poika (Hijo De La Luna)
TTITLE2=Kotiapulainen (Mother's Little Helper)
EXTD=TR.
EXTT0=
EXTT1=
EXTT2=
PLAYORDER=
